<svg width="179" height="181" viewBox="0 0 179 181" fill="none" xmlns="http://www.w3.org/2000/svg">
<path d="M89.4218 139.927C115.072 139.927 135.865 109.327 135.865 71.5806C135.865 33.8338 115.072 3.23401 89.4218 3.23401C63.772 3.23401 42.9788 33.8338 42.9788 71.5806C42.9788 109.327 63.772 139.927 89.4218 139.927Z" fill="white"/>
<path d="M113.888 177.658H65.0636V181H113.888V177.658Z" fill="#156E56"/>
<path d="M1.08259 159.224C1.08259 158.254 1.08259 157.391 1.08259 157.068C1.08259 156.637 0.866068 156.421 0.757809 156.421H0.216514C0.108256 156.421 0.108257 156.421 0.108257 156.313V155.99C0.108257 155.882 0.108256 155.882 0.216514 155.882C0.324773 155.882 0.757812 155.882 2.16518 155.882C2.92299 155.882 4.00557 155.882 4.54687 155.882C5.5212 155.882 6.27901 156.205 6.8203 156.745C7.25334 157.176 7.57812 157.715 7.57812 158.146C7.57812 159.763 6.38727 160.518 5.19642 160.625V160.733C5.62946 160.841 5.84598 161.057 6.06249 161.38C6.27901 161.596 6.92857 162.781 7.03683 162.889C7.14508 162.997 7.79464 163.967 8.11941 164.291C8.22767 164.506 8.76897 164.614 9.09375 164.614C9.202 164.614 9.202 164.614 9.202 164.722V165.045C9.202 165.153 9.202 165.153 9.09375 165.153C8.98549 165.153 8.66071 165.153 7.68638 165.153C7.3616 165.153 6.82031 165.153 6.49553 165.153C6.0625 164.83 5.30468 163.32 5.08816 162.889C4.65513 162.027 4.11383 161.057 3.46428 161.057H2.81473V161.703C2.81473 162.458 2.81473 163.859 2.92299 164.075C2.92299 164.398 3.03125 164.614 3.24777 164.614H3.78906C3.89732 164.614 3.89732 164.614 3.89732 164.722V165.045C3.89732 165.153 3.89732 165.153 3.6808 165.153C3.6808 165.153 3.35602 165.153 1.94865 165.153C0.541289 165.153 0.324775 165.153 0.108257 165.153C-1.65351e-06 165.153 0 165.153 0 165.045V164.722C0 164.614 -1.65351e-06 164.614 0.108257 164.614H0.541294C0.866071 164.614 1.08259 164.506 1.08259 164.183C1.08259 162.889 1.08259 161.703 1.08259 160.518V159.224V159.224ZM2.81473 160.625C3.03125 160.625 3.24776 160.625 3.35602 160.625C5.08816 160.625 5.5212 159.008 5.5212 158.362C5.5212 157.715 5.30468 157.176 4.97991 156.96C4.54687 156.529 3.89731 156.421 3.57254 156.421C3.35602 156.421 3.1395 156.421 3.03124 156.529C2.92298 156.529 2.92299 156.744 2.92299 156.852L2.81473 160.625Z" fill="black"/>
<path d="M12.6663 160.086C13.3158 160.086 13.8571 160.086 13.9654 159.979C14.1819 159.979 14.3984 159.763 14.6149 159.547C14.7232 159.332 14.9397 159.008 14.9397 158.793C14.9397 158.685 14.9397 158.685 15.048 158.685H15.3727C15.481 158.685 15.481 158.685 15.481 158.793C15.481 159.008 15.481 159.655 15.481 160.086C15.481 160.625 15.481 161.272 15.5893 161.596C15.5893 161.703 15.5893 161.703 15.481 161.703L15.1562 161.811C15.1562 161.811 15.048 161.811 15.048 161.703C15.048 161.488 14.8314 161.164 14.8314 161.057C14.7232 160.841 14.3984 160.625 14.0736 160.625C13.7489 160.625 13.3158 160.518 12.7745 160.518V161.272C12.7745 161.919 12.8828 163.213 12.8828 163.428C12.8828 164.075 12.991 164.291 13.2076 164.398C13.4241 164.506 13.6406 164.506 14.2902 164.506C14.5067 164.506 15.048 164.506 15.3727 164.506C15.5893 164.506 16.0223 164.399 16.3471 164.075C16.6719 163.752 17.4297 162.997 17.6462 162.674C17.6462 162.674 17.7544 162.566 17.7544 162.674L17.971 162.781C17.971 162.781 18.0792 162.889 17.971 162.889L17.4297 164.83C17.4297 164.938 17.3214 165.045 17.1049 165.045C16.9966 165.045 16.7801 165.045 15.914 165.045C15.048 165.045 13.7489 165.045 11.4754 165.045C11.0424 165.045 10.6094 165.045 10.3928 165.045C10.0681 165.045 9.9598 165.045 9.85154 165.045C9.74328 165.045 9.74329 165.045 9.74329 164.938V164.614C9.74329 164.506 9.74328 164.506 9.85154 164.506H10.2846C10.9341 164.506 10.9341 164.399 10.9341 163.967V159.655C10.9341 158.577 10.9341 156.96 10.9341 156.852C10.9341 156.421 10.7176 156.313 10.3928 156.313H9.85154C9.85154 156.313 9.74329 156.313 9.74329 156.206V155.882C9.74329 155.882 9.74328 155.774 9.85154 155.774C10.1763 155.774 10.6094 155.774 11.8002 155.774H16.3471C16.5636 155.774 16.7801 155.774 16.8884 155.774C16.9966 155.774 16.9966 155.774 16.9966 155.882C16.9966 156.098 17.4297 157.823 17.5379 157.93C17.5379 158.038 17.5379 158.038 17.5379 158.038L17.3214 158.146H17.2131C17.1049 158.038 16.0223 156.852 15.6975 156.745C15.3727 156.529 15.048 156.421 14.7232 156.421H12.9911L12.6663 160.086ZM13.3158 154.912L15.048 153.079C15.1562 152.971 15.3727 152.864 15.5893 152.864C15.914 152.864 16.2388 153.187 16.2388 153.51C16.2388 153.726 16.0223 154.049 15.8058 154.157L13.6406 155.235H13.5323L13.3158 154.912Z" fill="black"/>
<path d="M21.76 161.596C21.76 162.242 21.76 163.967 21.76 164.075C21.76 164.399 21.8682 164.506 22.0848 164.506H22.7343C22.8426 164.506 22.8426 164.506 22.8426 164.614V164.938C22.8426 165.045 22.8426 165.045 22.7343 165.045C22.5178 165.045 22.193 165.045 20.6774 165.045C19.4865 165.045 19.0535 165.045 18.837 165.045C18.7287 165.045 18.7287 165.045 18.7287 164.938V164.614C18.7287 164.506 18.7287 164.506 18.837 164.506H19.1618C19.5948 164.506 19.7031 164.399 19.7031 164.075C19.7031 163.967 19.7031 161.919 19.7031 160.41V158.901C19.7031 158.038 19.7031 156.745 19.7031 156.529C19.7031 156.313 19.5948 156.206 19.27 156.206H18.6205C18.5122 156.206 18.5122 156.206 18.5122 156.098V155.774C18.5122 155.666 18.5122 155.667 18.6205 155.667C18.7287 155.667 19.27 155.667 20.5691 155.667C20.7856 155.667 21.5435 155.667 21.9765 155.667C23.6004 155.667 24.3582 155.774 25.116 156.421C25.6573 156.852 26.0903 157.607 26.0903 158.469C26.0903 159.979 24.8995 161.057 22.626 161.057C22.193 161.057 21.9765 161.057 21.5435 161.057V161.596H21.76ZM21.76 160.625C22.0847 160.733 22.3013 160.733 22.5178 160.733C22.9508 160.733 23.6004 160.302 23.8169 159.871C24.0334 159.44 24.1417 159.008 24.1417 158.469C24.1417 156.637 22.8426 156.313 22.3013 156.313C22.0847 156.313 21.9765 156.313 21.6517 156.421V160.625H21.76Z" fill="black"/>
<path d="M28.039 157.068C28.039 156.637 27.9307 156.421 27.7142 156.421H27.0647C26.9564 156.421 26.9564 156.421 26.9564 156.313V155.99C26.9564 155.882 26.9564 155.882 27.0647 155.882C27.1729 155.882 27.8225 155.882 29.2299 155.882C30.4207 155.882 30.962 155.882 31.1785 155.882C31.2868 155.882 31.2868 155.882 31.2868 155.99V156.313C31.2868 156.421 31.2868 156.421 31.1785 156.421H30.7455C30.3124 156.421 30.0959 156.637 30.0959 156.96C30.0959 157.068 30.0959 157.93 30.0959 158.685V159.547C30.0959 160.194 30.0959 161.919 30.2042 162.242C30.2042 162.889 30.3124 163.428 30.6372 163.752C31.0703 164.291 31.7198 164.506 32.2611 164.506C32.6941 164.506 33.4519 164.291 33.7767 163.967C34.318 163.536 34.6428 162.781 34.6428 161.811V159.871C34.6428 158.793 34.5345 157.391 34.4263 157.068C34.4263 156.745 34.2098 156.529 33.9932 156.529H33.5602C33.4519 156.529 33.452 156.529 33.452 156.421V156.098C33.452 155.99 33.4519 155.99 33.5602 155.99C33.6685 155.99 34.318 155.99 35.1841 155.99C35.8336 155.99 36.2667 155.99 36.3749 155.99C36.4832 155.99 36.4832 155.99 36.4832 156.098V156.421C36.4832 156.529 36.4832 156.529 36.3749 156.529H35.9419C35.4006 156.529 35.4006 156.852 35.4006 157.068C35.4006 157.284 35.4006 159.008 35.4006 159.224C35.4006 159.44 35.4006 161.703 35.2923 162.135C35.1841 163.213 34.8593 163.967 34.2098 164.614C33.6685 165.153 32.8024 165.369 31.9363 165.369C31.2868 165.369 30.529 165.261 29.9877 165.045C29.3381 164.722 28.7968 164.183 28.472 163.32C28.2555 162.781 28.1473 161.919 28.1473 160.194V157.068H28.039Z" fill="black"/>
<path d="M38.3237 159.44C38.3237 159.008 38.3237 157.391 38.3237 157.176C38.3237 156.421 38.1071 156.421 37.6741 156.421H37.2411C37.1328 156.421 37.1328 156.421 37.1328 156.313V155.99C37.1328 155.882 37.1328 155.882 37.2411 155.882C37.4576 155.882 37.9989 155.882 39.298 155.882C39.731 155.882 40.4888 155.882 41.3549 155.882C42.3292 155.882 43.0871 155.99 43.5201 156.205C44.2779 156.637 44.4944 157.176 44.4944 157.93C44.4944 158.793 43.9531 159.655 42.654 160.086C44.2779 160.518 45.144 161.272 45.144 162.674C45.144 163.32 44.7109 164.291 44.1696 164.614C43.6283 164.937 42.7623 165.045 41.1384 165.045C41.0301 165.045 40.7054 165.045 40.2723 165.045C39.9475 165.045 39.5145 165.045 39.298 165.045C38.6484 165.045 38.2154 165.045 37.8906 165.045C37.5659 165.045 37.4576 165.045 37.3493 165.045C37.2411 165.045 37.2411 165.045 37.2411 164.937V164.614C37.2411 164.506 37.2411 164.506 37.3493 164.506H37.7824C38.2154 164.506 38.2154 164.398 38.3237 163.967C38.3237 163.644 38.4319 161.919 38.4319 160.949V159.44H38.3237ZM40.1641 159.979C40.7054 159.979 41.5714 159.979 41.8962 159.655C42.3292 159.332 42.5458 158.685 42.5458 158.146C42.5458 157.607 42.4375 157.176 42.0045 156.852C41.5714 156.529 40.9219 156.421 40.8136 156.421C40.4888 156.421 40.2723 156.421 40.2723 156.637C40.2723 156.852 40.2723 158.038 40.2723 159.116V159.979H40.1641ZM40.1641 162.997C40.1641 164.183 40.4888 164.722 41.1384 164.722C42.1127 164.722 42.9788 164.291 42.9788 162.674C42.9788 161.596 42.5458 160.949 41.7879 160.625C41.1384 160.41 40.4888 160.41 40.1641 160.41V162.997V162.997Z" fill="black"/>
<path d="M49.4743 161.057C49.4743 161.272 49.4743 164.075 49.4743 164.614H50.2321C50.8817 164.614 51.423 164.614 52.0725 164.506C52.7221 164.399 53.6964 162.889 53.8047 162.458C53.8047 162.35 53.9129 162.35 53.9129 162.35L54.1294 162.458C54.1294 162.458 54.1294 162.458 54.1294 162.566C54.1294 162.674 53.5882 164.83 53.4799 165.153C53.1551 165.153 49.3661 165.153 48.1752 165.153C46.8761 165.153 46.4431 165.153 46.2265 165.153C46.1183 165.153 46.1183 165.153 46.1183 165.045V164.722C46.1183 164.614 46.1183 164.614 46.2265 164.614H46.6596C47.0926 164.614 47.2009 164.399 47.2009 164.291C47.2009 164.075 47.2009 160.841 47.2009 160.086V159.332C47.2009 158.469 47.2009 157.176 47.2009 156.96C47.2009 156.637 47.0926 156.529 46.7678 156.529H46.3348C46.2265 156.529 46.2265 156.421 46.2265 156.421V156.098C46.2265 155.99 46.2265 155.99 46.3348 155.99C46.4431 155.99 46.9844 155.99 48.1752 155.99C49.6908 155.99 50.2321 155.99 50.3404 155.99C50.4486 155.99 50.4486 155.99 50.4486 156.098V156.421C50.4486 156.529 50.4486 156.529 50.3404 156.529H49.6908C49.2578 156.529 49.2578 156.637 49.2578 156.96C49.2578 157.176 49.2578 159.116 49.2578 159.979V161.057H49.4743Z" fill="black"/>
<path d="M56.1863 159.655C56.1863 159.332 56.1863 157.068 56.1863 156.852C56.1863 156.529 56.0781 156.421 55.7533 156.421H55.1037C54.9955 156.421 54.9955 156.421 54.9955 156.313V155.99C54.9955 155.99 54.9955 155.882 55.1037 155.882C55.212 155.882 55.9698 155.882 57.1607 155.882C58.4598 155.882 58.8928 155.882 59.1093 155.882C59.2176 155.882 59.2176 155.882 59.2176 155.99V156.313C59.2176 156.421 59.2176 156.421 59.1093 156.421H58.7845C58.4598 156.421 58.2433 156.529 58.2433 156.745C58.2433 156.852 58.2433 159.763 58.2433 159.871V160.841C58.2433 160.949 58.2433 163.967 58.2433 164.075C58.2433 164.506 58.4598 164.506 58.6763 164.506H59.2176C59.3258 164.506 59.3258 164.506 59.3258 164.614V164.937C59.3258 164.937 59.3258 165.045 59.2176 165.045C59.1093 165.045 58.568 165.045 57.2689 165.045C55.8616 165.045 55.3203 165.045 55.212 165.045C55.1037 165.045 55.1037 165.045 55.1037 164.937V164.614C55.1037 164.614 55.1037 164.506 55.212 164.506H55.5368C55.7533 164.506 56.0781 164.506 56.0781 164.183C56.0781 163.967 56.1863 161.164 56.1863 160.518V159.655Z" fill="black"/>
<path d="M69.6104 157.068C70.4765 157.93 70.9095 159.116 70.8013 160.302C70.8013 161.703 70.26 162.889 69.5022 163.644C68.7444 164.398 68.0948 164.722 67.2287 165.045C68.3113 165.477 69.3939 165.8 70.26 166.016C73.0747 166.662 73.616 166.662 74.049 166.662C74.4821 166.662 74.8068 166.447 75.0234 166.339C75.1316 166.231 75.1316 166.339 75.1316 166.339L75.3481 166.447V166.555C75.1316 166.986 74.1573 168.064 73.2912 168.064C72.6417 168.064 71.7756 167.956 70.0435 167.417C68.5278 166.878 67.2287 166.339 65.0635 165.261C64.847 165.153 63.3314 164.938 62.1406 163.752C61.491 163.105 60.9497 161.919 60.9497 160.41C60.9497 159.008 61.491 157.823 62.4653 156.96C63.4397 155.99 64.847 155.667 65.8214 155.667C67.6618 155.667 68.8526 156.313 69.6104 157.068ZM68.8526 160.733C68.8526 159.224 68.3113 157.93 67.6618 157.284C67.1205 156.637 66.4709 156.313 65.7131 156.313C65.0636 156.313 64.414 156.745 64.0892 157.068C63.2231 157.93 62.8984 159.008 62.8984 160.086C62.8984 161.919 63.6562 163.213 64.1975 163.859C64.6305 164.398 65.4966 164.722 65.9296 164.722C68.2031 164.722 68.8526 161.811 68.8526 160.733Z" fill="black"/>
<path d="M73.0748 157.068C73.0748 156.637 72.9665 156.421 72.75 156.421H72.1005C71.9922 156.421 71.9922 156.421 71.9922 156.313V155.99C71.9922 155.882 71.9922 155.882 72.1005 155.882C72.2087 155.882 72.8583 155.882 74.2656 155.882C75.4565 155.882 75.9978 155.882 76.2143 155.882C76.3226 155.882 76.3225 155.882 76.3225 155.99V156.313C76.3225 156.421 76.3226 156.421 76.2143 156.421H75.7812C75.3482 156.421 75.1317 156.637 75.1317 156.96C75.1317 157.068 75.1317 157.93 75.1317 158.685V159.547C75.1317 160.194 75.1317 161.919 75.24 162.242C75.24 162.889 75.3482 163.428 75.673 163.752C76.106 164.291 76.7556 164.506 77.2969 164.506C77.7299 164.506 78.4877 164.291 78.8125 163.967C79.3538 163.536 79.6786 162.781 79.6786 161.811V159.871C79.6786 158.793 79.5703 157.391 79.4621 157.068C79.4621 156.745 79.2455 156.529 79.029 156.529H78.596C78.4877 156.529 78.4877 156.529 78.4877 156.421V156.098C78.4877 155.99 78.4877 155.99 78.596 155.99C78.7042 155.99 79.3538 155.99 80.2199 155.99C80.8694 155.99 81.3025 155.99 81.4107 155.99C81.519 155.99 81.519 155.99 81.519 156.098V156.421C81.519 156.529 81.519 156.529 81.4107 156.529H80.9777C80.4364 156.529 80.4364 156.852 80.4364 157.068C80.4364 157.284 80.4364 159.008 80.4364 159.224C80.4364 159.44 80.4364 161.703 80.3281 162.135C80.2199 163.213 79.8951 163.967 79.2455 164.614C78.7042 165.153 77.8382 165.369 76.9721 165.369C76.3225 165.369 75.5647 165.261 75.0234 165.045C74.3739 164.722 73.8326 164.183 73.5078 163.32C73.2913 162.781 73.183 161.919 73.183 160.194V157.068H73.0748Z" fill="black"/>
<path d="M85.308 160.086C85.9575 160.086 86.4988 160.086 86.6071 159.979C86.8236 159.979 87.0401 159.763 87.2567 159.547C87.3649 159.332 87.5814 159.008 87.5814 158.793C87.5814 158.685 87.5814 158.685 87.6897 158.685H88.0145C88.1227 158.685 88.1227 158.685 88.1227 158.793C88.1227 159.008 88.1227 159.655 88.1227 160.086C88.1227 160.625 88.1227 161.272 88.231 161.596C88.231 161.703 88.231 161.703 88.1227 161.703L87.798 161.811C87.798 161.811 87.6897 161.811 87.6897 161.703C87.6897 161.488 87.4732 161.164 87.4732 161.057C87.3649 160.841 87.0401 160.625 86.7154 160.625C86.3906 160.625 85.9576 160.518 85.4163 160.518V161.272C85.4163 161.919 85.5245 163.213 85.5245 163.428C85.5245 164.075 85.6328 164.291 85.8493 164.398C86.0658 164.506 86.2823 164.506 86.9319 164.506C87.1484 164.506 87.6897 164.506 88.0145 164.506C88.231 164.506 88.664 164.398 88.9888 164.075C89.3136 163.752 90.0714 162.997 90.2879 162.674C90.2879 162.674 90.3962 162.566 90.3962 162.674L90.6127 162.781C90.6127 162.781 90.7209 162.889 90.6127 162.889L90.0714 164.83C90.0714 164.938 89.9631 165.045 89.7466 165.045C89.6384 165.045 89.4218 165.045 88.5558 165.045C87.6897 165.045 86.3906 165.045 84.1172 165.045C83.6841 165.045 83.2511 165.045 83.0346 165.045C82.7098 165.045 82.6015 165.045 82.4933 165.045C82.385 165.045 82.385 165.045 82.385 164.937V164.614C82.385 164.506 82.385 164.506 82.4933 164.506H82.9263C83.5759 164.506 83.5759 164.398 83.5759 163.967V159.655C83.5759 158.577 83.5759 156.96 83.5759 156.852C83.5759 156.421 83.3593 156.313 83.0346 156.313H82.4933C82.4933 156.313 82.385 156.313 82.385 156.206V155.882C82.385 155.882 82.385 155.774 82.4933 155.774C82.8181 155.774 83.2511 155.774 84.4419 155.774H88.9888C89.2053 155.774 89.4218 155.774 89.5301 155.774C89.6384 155.774 89.6383 155.774 89.6383 155.882C89.6383 156.098 90.0714 157.823 90.1796 157.93C90.1796 158.038 90.1796 158.038 90.1796 158.038L89.9631 158.146H89.8549C89.7466 158.038 88.664 156.852 88.3392 156.745C88.0145 156.529 87.6897 156.421 87.3649 156.421H85.6328L85.308 160.086Z" fill="black"/>
<path d="M98.6238 156.529H98.1908C97.7577 156.529 96.9999 156.529 96.4586 156.745C96.1338 156.96 95.5925 157.715 95.2678 158.254C95.2678 158.362 95.1595 158.362 95.1595 158.362L94.8347 158.254C94.8347 158.254 94.7265 158.146 94.8347 158.146C94.943 157.607 95.376 155.882 95.4843 155.667C95.4843 155.451 95.5926 155.451 95.7008 155.451C95.8091 155.451 95.8091 155.451 95.9173 155.667C96.0256 155.882 96.3504 155.99 96.7834 155.99C97.433 155.99 97.9742 156.098 99.3816 156.098H100.139C101.547 156.098 102.088 156.098 102.629 155.99C102.954 155.99 103.387 155.774 103.604 155.667C103.712 155.559 103.82 155.451 103.928 155.451C104.037 155.451 104.037 155.451 104.037 155.667C104.037 155.99 104.362 157.499 104.47 158.254V158.362L104.145 158.469C104.145 158.469 104.037 158.469 104.037 158.362C103.712 157.93 103.279 157.176 102.954 156.96C102.629 156.745 101.439 156.745 101.222 156.745H100.789V160.302C100.789 160.518 100.789 164.075 100.789 164.291C100.789 164.614 100.897 164.83 101.222 164.83H101.763C101.872 164.83 101.872 164.83 101.872 164.938V165.261C101.872 165.369 101.872 165.369 101.763 165.369C101.655 165.369 101.222 165.369 99.8147 165.369C98.4073 165.369 97.866 165.369 97.7577 165.369C97.6495 165.369 97.6495 165.369 97.6495 165.261V165.045C97.6495 164.938 97.6495 164.938 97.7577 164.938H98.4073C98.6238 164.938 98.8403 164.83 98.8403 164.506C98.8403 164.183 98.8403 160.302 98.8403 159.979V156.529H98.6238Z" fill="black"/>
<path d="M106.96 164.398C105.985 163.859 105.011 162.458 105.011 160.518C105.011 159.763 105.228 158.469 106.202 157.284C107.393 155.882 108.8 155.667 109.991 155.667C111.074 155.667 112.048 155.882 113.131 156.637C114.105 157.391 114.863 158.685 114.863 160.518C114.863 161.488 114.538 162.458 113.888 163.32C113.022 164.398 111.94 165.153 109.883 165.153C109.017 165.261 107.934 165.045 106.96 164.398ZM112.914 160.733C112.914 157.93 111.074 156.313 109.991 156.313C109.775 156.313 109.125 156.206 108.259 156.96C107.501 157.715 107.068 159.008 107.068 160.086C107.068 163.428 109.017 164.614 110.099 164.614C112.481 164.614 112.914 161.811 112.914 160.733Z" fill="black"/>
<path d="M125.256 163.859C125.256 164.075 125.256 164.183 125.256 164.291C125.256 164.398 125.147 164.398 125.039 164.506C123.956 165.045 122.874 165.369 121.25 165.369C119.951 165.369 118.435 164.937 117.461 163.859C116.703 162.997 116.27 161.919 116.27 160.302C116.27 159.116 116.811 157.823 117.786 157.068C118.76 156.206 119.951 155.774 121.466 155.774C122.766 155.774 123.74 156.098 124.173 156.421C124.281 156.529 124.389 156.529 124.498 156.421L124.606 156.206C124.714 156.098 124.714 156.098 124.822 156.098C124.931 156.098 125.039 156.206 125.039 156.313L125.256 159.008C125.256 159.116 125.256 159.224 125.256 159.224L124.931 159.332C124.822 159.332 124.822 159.332 124.822 159.224C124.606 158.577 124.173 157.715 123.632 157.284C123.09 156.852 122.441 156.529 121.575 156.529C120.925 156.529 120.276 156.745 119.626 157.499C118.976 158.254 118.543 159.332 118.543 160.41C118.543 161.919 118.976 163.213 119.626 163.967C120.276 164.614 120.709 164.83 121.575 164.83C122.224 164.83 122.657 164.83 123.09 164.614C123.415 164.506 123.415 164.075 123.415 163.428V162.458C123.415 162.027 123.307 161.811 122.982 161.811H122.441C122.333 161.811 122.333 161.811 122.333 161.703V161.38C122.333 161.38 122.333 161.272 122.441 161.272C122.549 161.272 123.199 161.272 124.389 161.272C125.58 161.272 126.013 161.272 126.122 161.272C126.23 161.272 126.23 161.272 126.23 161.38V161.703C126.23 161.811 126.23 161.811 126.122 161.811H125.797C125.58 161.811 125.364 161.919 125.364 162.242V163.859H125.256Z" fill="black"/>
<path d="M129.478 164.398C128.503 163.859 127.529 162.458 127.529 160.518C127.529 159.763 127.745 158.469 128.72 157.284C129.911 155.882 131.318 155.667 132.509 155.667C133.591 155.667 134.566 155.882 135.648 156.637C136.623 157.391 137.38 158.685 137.38 160.518C137.38 161.488 137.056 162.458 136.406 163.32C135.54 164.398 134.457 165.153 132.401 165.153C131.643 165.261 130.452 165.045 129.478 164.398ZM135.432 160.733C135.432 157.93 133.591 156.313 132.509 156.313C132.292 156.313 131.643 156.206 130.777 156.96C130.019 157.715 129.586 159.008 129.586 160.086C129.586 163.428 131.535 164.614 132.617 164.614C134.999 164.614 135.432 161.811 135.432 160.733Z" fill="black"/>
<path d="M141.603 161.057C141.603 161.272 141.603 164.075 141.603 164.614H142.36C143.01 164.614 143.551 164.614 144.201 164.506C144.85 164.399 145.825 162.889 145.933 162.458C145.933 162.35 146.041 162.35 146.041 162.35L146.258 162.458C146.258 162.458 146.258 162.458 146.258 162.566C146.258 162.674 145.716 164.83 145.608 165.153C145.283 165.153 141.494 165.153 140.303 165.153C139.004 165.153 138.571 165.153 138.355 165.153C138.247 165.153 138.247 165.153 138.247 165.045V164.722C138.247 164.614 138.247 164.614 138.355 164.614H138.788C139.221 164.614 139.329 164.399 139.329 164.291C139.329 164.075 139.329 160.841 139.329 160.086V159.332C139.329 158.469 139.329 157.176 139.329 156.96C139.329 156.637 139.221 156.529 138.896 156.529H138.463C138.355 156.529 138.355 156.421 138.355 156.421V156.098C138.355 155.99 138.355 155.99 138.463 155.99C138.571 155.99 139.113 155.99 140.303 155.99C141.819 155.99 142.36 155.99 142.469 155.99C142.577 155.99 142.577 155.99 142.577 156.098V156.421C142.577 156.529 142.577 156.529 142.469 156.529H141.819C141.386 156.529 141.386 156.637 141.386 156.96C141.386 157.176 141.386 159.116 141.386 159.979V161.057H141.603Z" fill="black"/>
<path d="M149.397 161.488C149.289 161.811 148.639 163.536 148.639 163.967C148.639 164.291 148.748 164.614 149.181 164.614H149.614C149.722 164.614 149.722 164.614 149.722 164.722V165.045C149.722 165.153 149.722 165.153 149.614 165.153C149.397 165.153 148.964 165.153 147.882 165.153C146.907 165.153 146.691 165.153 146.474 165.153C146.366 165.153 146.366 165.045 146.366 164.938V164.722C146.366 164.614 146.366 164.614 146.474 164.614H146.799C147.124 164.614 147.449 164.399 147.665 164.075C147.882 163.752 148.748 161.596 149.181 160.41C149.289 160.194 150.372 157.391 150.48 157.068C150.48 156.96 150.588 156.745 150.48 156.637C150.48 156.637 150.372 156.529 150.372 156.421C150.372 156.421 150.372 156.313 150.48 156.313C150.913 156.206 151.779 155.882 151.887 155.667C151.995 155.559 151.995 155.559 152.104 155.559C152.212 155.559 152.212 155.667 152.212 155.774C152.428 156.637 153.511 159.44 153.728 160.302C154.052 161.272 154.918 163.752 155.027 164.075C155.243 164.506 155.568 164.614 155.784 164.614H156.218C156.326 164.614 156.326 164.614 156.326 164.722V164.938C156.326 165.045 156.326 165.153 156.218 165.153C156.001 165.153 155.676 165.153 154.052 165.153C152.97 165.153 152.537 165.153 152.212 165.153C152.104 165.153 152.104 165.045 152.104 164.938V164.722C152.104 164.614 152.104 164.614 152.212 164.614H152.537C152.861 164.614 152.97 164.506 152.97 164.183C152.861 163.752 152.32 162.027 152.212 161.596H149.397V161.488ZM152.212 161.057C152.104 160.625 151.346 157.93 151.238 157.607C151.238 157.391 151.129 157.284 151.129 157.284C151.021 157.284 151.021 157.284 151.021 157.499C150.913 157.715 149.83 160.733 149.722 161.057H152.212Z" fill="black"/>
<path d="M158.383 159.655C158.383 159.332 158.383 157.068 158.383 156.852C158.383 156.529 158.274 156.421 157.95 156.421H157.3C157.192 156.421 157.192 156.421 157.192 156.313V155.99C157.192 155.99 157.192 155.882 157.3 155.882C157.408 155.882 158.166 155.882 159.357 155.882C160.656 155.882 161.089 155.882 161.306 155.882C161.414 155.882 161.414 155.882 161.414 155.99V156.313C161.414 156.421 161.414 156.421 161.306 156.421H160.873C160.548 156.421 160.331 156.529 160.331 156.745C160.331 156.852 160.331 159.763 160.331 159.871V160.841C160.331 160.949 160.331 163.967 160.331 164.075C160.331 164.506 160.548 164.506 160.764 164.506H161.306C161.414 164.506 161.414 164.506 161.414 164.614V164.937C161.414 164.937 161.414 165.045 161.306 165.045C161.197 165.045 160.656 165.045 159.357 165.045C157.95 165.045 157.408 165.045 157.3 165.045C157.192 165.045 157.192 165.045 157.192 164.937V164.614C157.192 164.614 157.192 164.506 157.3 164.506H157.625C157.841 164.506 158.166 164.506 158.166 164.183C158.166 163.967 158.274 161.164 158.274 160.518V159.655H158.383Z" fill="black"/>
<path d="M163.687 162.242C163.796 162.242 163.796 162.242 163.687 162.242C163.796 162.781 164.012 163.32 164.337 163.752C164.662 164.399 165.311 164.614 165.961 164.614C166.61 164.614 167.585 164.183 167.585 163.213C167.585 162.135 167.368 161.811 165.744 161.164C165.311 161.057 164.553 160.625 163.904 160.086C163.471 159.655 163.254 159.008 163.254 158.254C163.254 157.499 163.471 156.96 164.229 156.313C164.77 155.882 165.311 155.667 166.069 155.667C167.043 155.667 167.476 155.774 167.801 155.882C167.91 155.882 168.018 155.882 168.126 155.774L168.343 155.559C168.343 155.559 168.451 155.451 168.559 155.451C168.667 155.451 168.667 155.559 168.667 155.667L168.884 157.823C168.884 157.823 168.884 157.93 168.776 157.93L168.451 158.038C168.343 158.038 168.343 158.038 168.234 157.93C168.126 157.607 167.91 157.068 167.476 156.637C167.152 156.313 166.719 156.098 166.177 156.098C165.203 156.098 164.77 156.96 164.77 157.284C164.77 157.715 164.77 158.146 165.095 158.469C165.42 158.793 166.177 159.116 166.827 159.332C167.476 159.547 167.91 159.871 168.451 160.302C168.992 160.733 169.209 161.272 169.209 162.242C169.209 163.86 168.126 165.045 166.394 165.045C165.203 165.045 164.662 164.83 164.12 164.506C164.012 164.399 163.904 164.399 163.796 164.399C163.687 164.399 163.687 164.506 163.579 164.614C163.471 164.722 163.471 164.722 163.363 164.722C163.254 164.722 163.146 164.614 163.146 164.506L163.363 162.027C163.363 161.919 163.363 161.919 163.471 161.919L163.687 162.242Z" fill="black"/>
<path d="M173.647 160.086C174.297 160.086 174.838 160.086 174.946 159.979C175.163 159.979 175.379 159.763 175.596 159.547C175.704 159.332 175.921 159.008 175.921 158.793C175.921 158.685 175.921 158.685 176.029 158.685H176.354C176.462 158.685 176.462 158.685 176.462 158.793C176.462 159.008 176.462 159.655 176.462 160.086C176.462 160.625 176.462 161.272 176.57 161.596C176.57 161.703 176.57 161.703 176.462 161.703L176.137 161.811C176.137 161.811 176.029 161.811 176.029 161.703C176.029 161.488 175.812 161.164 175.812 161.057C175.704 160.841 175.379 160.625 175.055 160.625C174.73 160.625 174.297 160.518 173.755 160.518V161.272C173.755 161.919 173.864 163.213 173.864 163.428C173.864 164.075 173.972 164.291 174.189 164.398C174.405 164.506 174.622 164.506 175.271 164.506C175.488 164.506 176.029 164.506 176.354 164.506C176.57 164.506 177.003 164.398 177.328 164.075C177.653 163.752 178.411 162.997 178.627 162.674C178.627 162.674 178.735 162.566 178.735 162.674L178.952 162.781C178.952 162.781 179.06 162.889 178.952 162.889L178.411 164.83C178.411 164.938 178.302 165.045 178.086 165.045C177.978 165.045 177.761 165.045 176.895 165.045C176.029 165.045 174.73 165.045 172.456 165.045C172.023 165.045 171.59 165.045 171.374 165.045C171.049 165.045 170.941 165.045 170.832 165.045C170.724 165.045 170.724 165.045 170.724 164.937V164.614C170.724 164.506 170.724 164.506 170.832 164.506H171.266C171.915 164.506 171.915 164.398 171.915 163.967V159.655C171.915 158.577 171.915 156.96 171.915 156.852C171.915 156.421 171.699 156.313 171.374 156.313H170.832C170.832 156.313 170.724 156.313 170.724 156.206V155.882C170.724 155.882 170.724 155.774 170.832 155.774C171.157 155.774 171.59 155.774 172.781 155.774H177.328C177.545 155.774 177.761 155.774 177.869 155.774C177.978 155.774 177.978 155.774 177.978 155.882C177.978 156.098 178.411 157.823 178.519 157.93C178.519 158.038 178.519 158.038 178.519 158.038L178.302 158.146H178.194C178.086 158.038 177.003 156.852 176.678 156.745C176.354 156.529 176.029 156.421 175.704 156.421H173.972L173.647 160.086Z" fill="black"/>
<path d="M122.657 30.1847L122.549 30.0769C121.033 28.2442 119.518 26.6272 117.894 25.118C113.022 20.5903 107.718 17.2484 101.872 15.2002L102.413 13.0441L102.196 12.9363C100.573 12.3973 98.9486 11.9661 97.3248 11.6427C94.7266 11.1037 92.1283 10.7803 89.4219 10.7803C86.8237 10.7803 84.1172 11.1037 81.519 11.6427C79.8951 11.9661 78.2712 12.3973 76.6473 12.9363L76.4308 13.0441L76.9721 15.2002C71.2344 17.2484 65.8214 20.4825 60.9498 25.118C59.3259 26.6272 57.702 28.352 56.2947 30.0769L56.1864 30.1847L61.9241 36.9762C61.9241 37.084 62.0324 37.084 62.1406 37.084L68.0949 36.2216C68.2031 36.2216 68.3114 36.1138 68.3114 36.006V35.8982L66.1462 32.5563C70.1518 28.891 74.5904 26.196 79.3538 24.579C80.6529 24.1478 81.952 23.8243 83.2511 23.5009H83.4676L83.0346 20.4825C85.0915 20.0513 87.2567 19.8357 89.4219 19.8357C91.587 19.8357 93.7522 20.0513 95.8091 20.4825L95.3761 23.5009H95.5926C96.8917 23.7165 98.1908 24.1478 99.4899 24.579C104.253 26.196 108.692 28.7832 112.698 32.5563L110.532 35.8982C110.532 35.8982 110.532 35.8982 110.532 36.006C110.532 36.1138 110.641 36.2216 110.749 36.2216L116.703 37.084C116.811 37.084 116.811 37.084 116.92 36.9762L122.657 30.1847ZM113.455 33.3109C113.564 33.4187 113.78 33.6343 113.888 33.7421C114.105 33.9578 114.321 34.1734 114.43 34.2812C114.538 34.389 114.646 34.4968 114.863 34.7124C115.079 34.928 115.296 35.1436 115.512 35.3592C115.621 35.467 115.729 35.5748 115.837 35.6826C116.054 36.006 116.378 36.2216 116.595 36.545L111.074 35.7904L113.022 32.7719C113.131 32.9875 113.347 33.2031 113.455 33.3109ZM63.3315 35.467C63.548 35.2514 63.7645 35.0358 63.981 34.8202C64.0893 34.7124 64.1976 34.6046 64.4141 34.389C64.6306 34.1734 64.8471 33.9578 64.9554 33.85C65.0636 33.7422 65.2801 33.5266 65.3884 33.4187C65.4967 33.3109 65.7132 33.0953 65.8214 32.9875L67.7701 36.006L62.2489 36.7606C62.4654 36.4372 62.7902 36.2216 63.0067 35.8982C63.115 35.6826 63.2232 35.5748 63.3315 35.467ZM79.2455 24.2556C74.4822 25.8726 70.0435 28.5676 65.9297 32.2329L65.7132 32.4485C65.3884 32.7719 65.0636 33.0953 64.7388 33.4187C64.6306 33.5266 64.5223 33.6343 64.4141 33.7421C64.1976 33.9578 63.981 34.1734 63.7645 34.389C63.6563 34.4968 63.548 34.7124 63.3315 34.8202C63.115 35.0358 63.0067 35.2514 62.7902 35.467C62.6819 35.5748 62.5737 35.7904 62.3572 35.8982C62.2489 36.1138 62.0324 36.2216 61.9241 36.4372L56.7277 30.2925C58.1351 28.5676 59.6507 26.9506 61.2746 25.4414C66.038 20.9137 71.3426 17.6796 77.0804 15.6314L78.4877 21.8839C78.4877 21.9917 78.4877 21.9917 78.596 22.0995L82.385 23.5009C81.4107 23.6087 80.3281 23.9321 79.2455 24.2556ZM82.6016 20.6981L82.9263 23.1775L78.9208 21.7761C80.2199 21.2371 81.4107 20.9137 82.6016 20.6981ZM82.8181 20.2669C81.519 20.5903 80.1116 20.9137 78.9208 21.3449L77.0804 13.2597C78.596 12.7207 80.2199 12.2895 81.7355 11.9661C84.3337 11.4271 86.9319 11.2115 89.5301 11.1037C92.1283 11.1037 94.7266 11.4271 97.3248 11.9661C98.8404 12.2895 100.464 12.7207 101.98 13.2597L100.139 21.3449C98.8404 20.9137 97.5413 20.5903 96.2422 20.2669C94.077 19.8357 91.8036 19.6201 89.5301 19.6201C87.2567 19.5123 84.9832 19.8357 82.8181 20.2669ZM99.923 21.6683L95.9174 23.0697L96.2422 20.5903C97.5413 20.9137 98.7321 21.2371 99.923 21.6683ZM99.5982 24.2556C98.5156 23.9321 97.433 23.6087 96.3504 23.3931L100.139 21.9917C100.248 21.9917 100.248 21.8839 100.248 21.7761L101.655 15.5236C107.285 17.464 112.698 20.8059 117.461 25.3336C119.085 26.8428 120.6 28.4598 122.008 30.1847L116.811 36.3294C116.703 36.1138 116.487 36.006 116.378 35.7904C116.27 35.6826 116.162 35.467 115.945 35.3592C115.729 35.1436 115.621 34.928 115.404 34.7124C115.296 34.6046 115.187 34.389 114.971 34.2812C114.754 34.0656 114.538 33.85 114.321 33.6343C114.213 33.5265 114.105 33.4187 113.997 33.3109C113.672 32.9875 113.347 32.6641 113.022 32.3407L112.806 32.1251C108.908 28.5676 104.362 25.8726 99.5982 24.2556Z" fill="black"/>
<path d="M89.4219 0C61.9241 0 39.6228 32.1251 39.6228 71.6885C39.6228 111.144 61.9241 143.377 89.4219 143.377C116.811 143.377 139.221 111.252 139.221 71.6885C139.221 32.1251 116.92 0 89.4219 0ZM89.4219 139.927C63.8728 139.927 42.9788 109.312 42.9788 71.5807C42.9788 33.8499 63.7645 3.23407 89.4219 3.23407C115.079 3.23407 135.865 33.8499 135.865 71.5807C135.865 109.312 115.079 139.927 89.4219 139.927Z" fill="#156E56"/>
<path d="M83.7924 62.2019L78.9208 35.1435L78.163 34.1733L78.7043 32.5563L79.7868 33.9577L79.3538 35.1435L83.7924 62.2019Z" fill="#FFCD2E"/>
<path d="M100.681 34.1733L99.923 35.1435L94.9431 62.5253L99.49 35.1435L99.0569 33.9577L100.14 32.5563L100.681 34.1733Z" fill="#FFCD2E"/>
<path d="M101.33 83.8701C101.222 83.7623 99.923 83.3311 98.2991 84.5169C96.567 85.8106 97.5413 88.5056 97.5413 88.5056C97.5413 88.5056 96.134 87.212 94.2936 87.751C92.4532 88.29 92.3449 91.0929 92.3449 91.0929C92.3449 91.0929 90.9375 89.0446 89.3137 89.0446C87.6898 89.0446 86.2824 91.0929 86.2824 91.0929C86.2824 91.0929 86.1742 88.29 84.3338 87.751C82.4934 87.212 81.086 88.5056 81.086 88.5056C81.086 88.5056 82.0603 85.9184 80.3282 84.5169C78.7043 83.3311 77.4052 83.7623 77.2969 83.8701C77.4052 83.6545 78.7043 82.0375 78.2713 80.2049C77.8382 78.2644 75.3483 77.941 75.3483 77.941C75.3483 77.941 77.8382 77.0786 77.9465 75.0303C78.0547 73.0899 76.1061 71.6885 75.9978 71.6885C76.1061 71.6885 78.4878 72.2275 79.3538 70.1792C80.2199 68.131 79.0291 66.4062 78.9208 66.1906C79.0291 66.2984 80.8695 67.592 82.4934 66.1906C83.6842 65.1125 83.9007 63.6033 83.7925 62.8487C84.2255 63.2799 85.3081 64.2501 86.3907 64.1423C88.6641 64.0345 89.4219 61.5551 89.4219 61.5551C89.4219 61.5551 90.1797 64.0345 92.4532 64.1423C93.5358 64.2501 94.6183 63.0643 94.9431 62.7409C94.9431 63.4955 95.1596 65.2203 96.3505 66.1906C97.9744 67.6998 99.7065 66.2984 99.923 66.1906C99.8148 66.2984 98.6239 68.131 99.49 70.1792C100.356 72.2275 102.738 71.7963 102.846 71.6885C102.738 71.7963 100.789 73.0899 100.897 75.0303C101.006 77.0786 103.496 77.941 103.496 77.941C103.496 77.941 101.006 78.2644 100.573 80.2049C99.923 82.0375 101.222 83.6545 101.33 83.8701Z" fill="#FFCD2E"/>
<path d="M89.6383 74.3836C89.6383 72.4432 88.3392 71.2573 86.1741 71.2573H81.5189V81.0673H83.6841V77.6177H85.4162L87.1484 81.0673H89.6383L87.7979 77.2942C88.9888 76.7552 89.6383 75.785 89.6383 74.3836ZM83.6841 73.3056H86.0658C86.9319 73.3056 87.3649 73.629 87.3649 74.3836C87.3649 75.1382 86.9319 75.5694 86.0658 75.5694H83.6841V73.3056Z" fill="black"/>
<path d="M90.3961 71.1495V73.3056H93.2109V81.0673H95.2678V73.3056H98.0825V71.1495H90.3961Z" fill="black"/>
<path d="M61.2746 28.7832L64.0893 31.5861L63.6562 32.0173L60.8415 29.2144L60.3002 29.8612L59.8672 29.43L61.4911 27.813L61.9241 28.2442L61.2746 28.7832Z" fill="black"/>
<path d="M66.3627 29.4301L64.5223 28.3521L64.0892 28.6755L65.3884 30.1847L64.9553 30.6159L61.9241 27.1663L62.8984 26.3038C63.4397 25.8726 64.0892 25.7648 64.7388 26.4117C65.1718 26.9507 65.1718 27.3819 64.9553 27.8131L66.904 28.8911L66.3627 29.4301ZM63.2232 26.9507L62.7901 27.3819L63.6562 28.3521L64.0892 27.9209C64.414 27.5975 64.414 27.2741 64.0892 26.9507C63.8727 26.6273 63.548 26.7351 63.2232 26.9507Z" fill="black"/>
<path d="M68.7444 27.5974L67.7701 26.8427L67.0123 27.4896L67.5536 28.5676L67.0123 28.9988L65.0636 24.6867L65.6049 24.2555L69.2857 27.1662L68.7444 27.5974ZM66.6875 25.8725C66.471 25.6569 66.0379 25.3335 65.9297 25.2257C66.0379 25.3335 66.2544 25.8725 66.3627 26.0881L66.6875 26.8427L67.2288 26.4115L66.6875 25.8725Z" fill="black"/>
<path d="M70.3682 26.4116L69.9352 26.6272L66.3627 23.5009L66.904 23.0697L68.6361 24.6868C68.8526 24.9024 69.1774 25.2258 69.3939 25.3336C69.2857 25.2258 69.0691 24.6868 69.0691 24.4712L68.2031 22.3151L68.7444 21.8839L70.3682 26.4116Z" fill="black"/>
<path d="M72.9665 24.7946L72.1004 23.9321L71.2344 24.4711L71.6674 25.657L71.1261 25.9804L69.7188 21.4527L70.26 21.1293L73.5078 24.4711L72.9665 24.7946ZM71.1261 22.9619C70.9096 22.7463 70.5848 22.3151 70.4766 22.2073C70.5848 22.4229 70.6931 22.8541 70.8013 23.1775L71.0179 23.9321L71.6674 23.6087L71.1261 22.9619Z" fill="black"/>
<path d="M73.9408 24.2556L71.8839 20.1591L72.4252 19.8357L74.4821 23.9322L73.9408 24.2556Z" fill="black"/>
<path d="M75.2399 23.6087L73.3995 19.4044L73.9408 19.1888L75.5647 22.7463L76.8638 22.2073L77.0803 22.7463L75.2399 23.6087Z" fill="black"/>
<path d="M104.253 21.8838L103.712 21.6682L102.954 23.393L102.413 23.1774L104.362 18.9731L105.444 19.5122C105.986 19.7278 106.419 20.3746 106.094 21.237C105.661 21.9916 104.903 22.0994 104.253 21.8838ZM105.119 19.9434L104.686 19.7278L104.037 21.0214L104.578 21.237C104.903 21.3448 105.228 21.237 105.444 20.8058C105.661 20.4824 105.444 20.159 105.119 19.9434Z" fill="black"/>
<path d="M106.31 25.0101L106.635 23.8243L105.769 23.3931L105.011 24.3633L104.362 24.0399L107.501 20.5902L108.042 20.9136L106.852 25.4413L106.31 25.0101ZM107.068 22.5307C107.176 22.2072 107.285 21.776 107.393 21.5604C107.285 21.6682 106.96 22.0994 106.743 22.315L106.202 22.9619L106.852 23.2853L107.068 22.5307Z" fill="black"/>
<path d="M110.099 22.6385L108.042 25.9803L107.501 25.6569L109.558 22.3151L108.8 21.8839L109.125 21.3448L111.074 22.5307L110.749 23.0697L110.099 22.6385Z" fill="black"/>
<path d="M110.532 27.8129L111.182 25.7646L110.749 25.4412L109.558 27.0583L109.017 26.7349L111.723 23.0696L112.806 23.8242C113.347 24.2554 113.672 24.9022 113.131 25.549C112.698 26.088 112.264 26.1958 111.831 26.088L111.182 28.2441L110.532 27.8129ZM112.373 24.2554L111.94 23.932L111.182 25.01L111.615 25.3334C111.94 25.549 112.264 25.549 112.589 25.2256C112.806 24.7944 112.698 24.471 112.373 24.2554Z" fill="black"/>
<path d="M111.615 28.5675L114.538 25.01L115.079 25.4412L112.156 28.9987L111.615 28.5675Z" fill="black"/>
<path d="M112.698 29.5378L115.729 26.1959L117.353 27.5974L116.92 28.0286L115.837 27.0583L114.971 27.9208L115.729 28.5676L115.296 28.9988L114.538 28.352L113.564 29.43L114.754 30.508L114.321 30.9392L112.698 29.5378Z" fill="black"/>
<path d="M80.6529 18.8653L79.5703 14.4454L80.2199 14.3376L81.0859 18.2185L82.4933 17.8951L82.6016 18.5419L80.6529 18.8653Z" fill="black"/>
<path d="M83.2511 18.2186L82.4933 13.6909L83.1428 13.5831L83.9006 18.1108L83.2511 18.2186Z" fill="black"/>
<path d="M85.8493 17.8951L84.6585 18.0029L84.2255 13.4752L85.4163 13.3674C86.1741 13.2596 86.7154 13.583 86.8237 14.4454C86.8237 14.7688 86.7154 15.2001 86.3906 15.4157C86.8237 15.5235 87.0402 15.8469 87.1485 16.3859C87.1485 17.3561 86.6072 17.7873 85.8493 17.8951ZM85.4163 14.0142L84.875 14.122L84.9833 15.3079L85.5246 15.2001C85.8493 15.2001 86.0659 14.9845 86.0659 14.5532C86.0659 14.122 85.7411 13.9064 85.4163 14.0142ZM85.6328 15.8469H85.0915L85.1998 17.3561L85.7411 17.2483C86.1741 17.2483 86.3907 16.9249 86.2824 16.3859C86.2824 15.9547 85.9576 15.7391 85.6328 15.8469Z" fill="black"/>
<path d="M87.6897 17.7873L87.5814 13.2596H89.7466V13.9065H88.231V15.0923H89.2053V15.7391H88.231V17.2483H89.8549V17.8951L87.6897 17.7873Z" fill="black"/>
<path d="M92.3449 17.7874L91.8036 15.7391H91.2623L91.1541 17.6796H90.5045L90.8293 13.1519L92.1284 13.2597C92.778 13.2597 93.4275 13.6909 93.3193 14.5533C93.3193 15.2001 92.9945 15.5235 92.5614 15.7391L93.211 17.8952L92.3449 17.7874ZM91.9119 13.7987H91.3706L91.2623 15.0923H91.8036C92.2367 15.0923 92.4532 14.9845 92.5614 14.4455C92.5614 14.1221 92.3449 13.9065 91.9119 13.7987Z" fill="black"/>
<path d="M95.2678 14.2298L94.7265 18.1107L94.077 18.0029L94.6183 14.122L93.7522 14.0142L93.8605 13.3674L96.1339 13.6908L96.0256 14.3377L95.2678 14.2298Z" fill="black"/>
<path d="M96.0256 18.3264L97 13.9065L99.0569 14.3377L98.9486 14.9845L97.433 14.6611L97.2165 15.8469L98.1908 16.0625L98.0825 16.7093L97.1082 16.4937L96.7834 18.003L98.2991 18.3264L98.1908 18.9732L96.0256 18.3264ZM98.5156 13.6909L97.9743 13.5831L98.5156 13.0441L99.2734 13.2597L98.5156 13.6909Z" fill="black"/>
<path d="M71.9923 47.5408C73.0749 47.2174 74.2657 46.8939 75.3483 46.6783H75.4566C75.9979 46.5705 76.5391 46.4627 76.9722 46.4627C77.0804 46.4627 77.0804 46.4627 77.1887 46.4627C77.4052 46.4627 77.6217 46.4627 77.9465 46.4627C78.0548 46.4627 78.163 46.4627 78.2713 46.4627C78.3795 46.4627 78.5961 46.4627 78.7043 46.4627C78.8126 46.4627 78.9208 46.4627 79.0291 46.4627C79.2456 46.4627 79.3539 46.4627 79.5704 46.4627C79.6786 46.4627 79.8952 46.4627 80.0034 46.4627C80.1117 46.4627 80.2199 46.4627 80.3282 46.4627C80.5447 46.4627 80.653 46.4627 80.8695 46.5705L79.2456 37.0839C76.2144 36.9761 73.2914 37.8386 70.2601 38.9166C70.9097 41.7194 71.451 44.6301 71.9923 47.5408Z" fill="#D4263F"/>
<path d="M75.9979 43.5521C76.7557 43.9833 77.5135 44.4145 78.163 44.8458C77.73 44.0911 77.4052 43.3365 76.9722 42.5819C77.5135 42.0429 78.0548 41.3961 78.5961 40.9649C77.8383 40.9649 77.0804 41.0727 76.3226 41.1805C75.8896 40.4259 75.5648 39.6712 75.1318 38.9166C75.0235 39.779 74.9153 40.5337 74.807 41.3961C74.0492 41.6117 73.2914 41.8273 72.5336 42.0429C73.2914 42.3663 73.9409 42.6897 74.6987 43.0131C74.5905 43.8755 74.4822 44.6301 74.374 45.4926C74.9153 44.7379 75.4566 44.0911 75.9979 43.5521Z" fill="white"/>
<path d="M70.9097 41.7195C70.6931 40.7493 70.5849 39.7791 70.3684 38.8088C63.9811 41.1805 57.7021 44.9536 51.3148 43.1209C51.5313 44.1989 51.6396 45.277 51.8561 46.355C52.7222 46.5706 53.5882 46.6784 54.4543 46.6784C59.9755 46.7862 65.3885 43.7677 70.9097 41.7195Z" fill="#156E56"/>
<path d="M62.0324 48.2954C65.1719 47.2174 68.3114 45.7082 71.4509 44.5224C71.2344 43.5521 71.1261 42.5819 70.9096 41.6117C65.3884 43.6599 59.9755 46.6784 54.4543 46.5706C53.5882 46.5706 52.7221 46.4628 51.8561 46.2472C52.0726 47.3252 52.1809 48.4032 52.3974 49.4813C55.6451 50.2359 58.7846 49.4813 62.0324 48.2954Z" fill="#FFCD2E"/>
<path d="M61.9242 51.5295C65.2803 50.3436 68.6363 48.7266 71.9923 47.5408C71.7758 46.5706 71.6675 45.6003 71.451 44.6301C68.3115 45.7082 65.172 47.2174 62.0325 48.4032C58.7847 49.589 55.537 50.2358 52.3975 49.6968C52.614 50.7749 52.7222 51.8529 52.9388 52.9309C55.97 53.2543 58.893 52.4997 61.9242 51.5295Z" fill="#156E56"/>
<path d="M56.2947 55.9494H56.1865C55.8617 55.9494 55.6452 55.9494 55.3204 55.9494C54.7791 55.9494 54.1296 55.9494 53.5883 55.8416C53.8048 56.9196 53.913 57.8898 54.1296 58.9679C63.4398 59.5069 72.7501 50.2359 82.1686 52.8231L81.6273 49.5891C73.0749 47.8642 64.6307 55.1948 56.2947 55.9494Z" fill="#156E56"/>
<path d="M55.2122 56.0572C55.5369 56.0572 55.7534 56.0572 56.0782 56.0572H56.1865C64.6307 55.3026 72.9666 47.972 81.4108 49.8046L80.8695 46.5706C80.653 46.5706 80.5447 46.4628 80.3282 46.4628C80.22 46.4628 80.1117 46.4628 80.0034 46.4628C79.8952 46.4628 79.6787 46.4628 79.5704 46.4628C79.3539 46.4628 79.2456 46.4628 79.0291 46.4628C78.9208 46.4628 78.8126 46.4628 78.7043 46.4628C78.5961 46.4628 78.3795 46.4628 78.2713 46.4628C78.163 46.4628 78.0548 46.4628 77.9465 46.4628C77.73 46.4628 77.5135 46.4628 77.1887 46.4628C77.0804 46.4628 77.0804 46.4628 76.9722 46.4628C76.4309 46.5706 75.8896 46.5706 75.4566 46.6784H75.3483C74.2657 46.894 73.0749 47.2174 71.9923 47.5408C68.6362 48.6188 65.2802 50.3436 61.9242 51.5295C58.893 52.6075 55.97 53.2543 52.9387 52.8231C53.1552 53.9011 53.2635 54.9792 53.48 55.9494C54.0213 56.0572 54.6709 56.0572 55.2122 56.0572Z" fill="#FFCD2E"/>
<path d="M106.96 47.5408C105.877 47.2174 104.686 46.8939 103.604 46.6783H103.495C102.954 46.5705 102.413 46.4627 101.98 46.4627C101.872 46.4627 101.872 46.4627 101.763 46.4627C101.547 46.4627 101.33 46.4627 101.006 46.4627C100.897 46.4627 100.789 46.4627 100.681 46.4627C100.572 46.4627 100.356 46.4627 100.248 46.4627C100.139 46.4627 100.031 46.4627 99.9229 46.4627C99.7064 46.4627 99.5981 46.4627 99.3816 46.4627C99.2734 46.4627 99.0569 46.4627 98.9486 46.4627C98.8403 46.4627 98.7321 46.4627 98.6238 46.4627C98.4073 46.4627 98.299 46.4627 98.0825 46.5705L99.7064 37.0839C102.738 36.9761 105.661 37.8386 108.692 38.9166C108.042 41.7194 107.501 44.6301 106.96 47.5408Z" fill="#D4263F"/>
<path d="M102.954 43.5521C102.196 43.9833 101.439 44.4145 100.789 44.8458C101.222 44.0911 101.547 43.3365 101.98 42.5819C101.439 42.0429 100.897 41.3961 100.356 40.9649C101.114 40.9649 101.872 41.0727 102.629 41.1805C103.062 40.4259 103.387 39.6712 103.82 38.9166C103.928 39.779 104.037 40.5337 104.145 41.3961C104.903 41.6117 105.661 41.8273 106.418 42.0429C105.661 42.3663 105.011 42.6897 104.253 43.0131C104.362 43.8755 104.47 44.6301 104.578 45.4926C104.037 44.7379 103.495 44.0911 102.954 43.5521Z" fill="white"/>
<path d="M108.042 41.7195C108.259 40.7493 108.367 39.7791 108.584 38.8088C114.971 41.1805 121.25 44.9536 127.637 43.1209C127.421 44.1989 127.312 45.277 127.096 46.355C126.23 46.5706 125.364 46.6784 124.498 46.6784C118.977 46.7862 113.564 43.7677 108.042 41.7195Z" fill="#156E56"/>
<path d="M116.92 48.2954C113.78 47.2174 110.641 45.7082 107.501 44.5224C107.718 43.5521 107.826 42.5819 108.042 41.6117C113.564 43.6599 118.977 46.6784 124.498 46.5706C125.364 46.5706 126.23 46.4628 127.096 46.2472C126.879 47.3252 126.771 48.4032 126.555 49.4813C123.307 50.2359 120.059 49.4813 116.92 48.2954Z" fill="#FFCD2E"/>
<path d="M117.028 51.5295C113.672 50.3436 110.316 48.7266 106.96 47.5408C107.176 46.5706 107.284 45.6003 107.501 44.6301C110.641 45.7082 113.78 47.2174 116.92 48.4032C120.167 49.589 123.415 50.2358 126.555 49.6968C126.338 50.7749 126.23 51.8529 126.013 52.9309C122.982 53.2543 120.059 52.4997 117.028 51.5295Z" fill="#156E56"/>
<path d="M122.657 55.9494H122.766C123.09 55.9494 123.307 55.9494 123.632 55.9494C124.173 55.9494 124.822 55.9494 125.364 55.8416C125.147 56.9196 125.039 57.8898 124.822 58.9679C115.512 59.5069 106.202 50.2359 96.7834 52.8231L97.3247 49.5891C105.877 47.8642 114.321 55.1948 122.657 55.9494Z" fill="#156E56"/>
<path d="M123.74 56.0572C123.415 56.0572 123.199 56.0572 122.874 56.0572H122.766C114.321 55.3026 105.985 47.972 97.5413 49.8046L98.0826 46.5706C98.2991 46.5706 98.4073 46.4628 98.6238 46.4628C98.7321 46.4628 98.8404 46.4628 98.9486 46.4628C99.0569 46.4628 99.2734 46.4628 99.3817 46.4628C99.5982 46.4628 99.7064 46.4628 99.923 46.4628C100.031 46.4628 100.139 46.4628 100.248 46.4628C100.356 46.4628 100.573 46.4628 100.681 46.4628C100.789 46.4628 100.897 46.4628 101.006 46.4628C101.222 46.4628 101.439 46.4628 101.763 46.4628C101.872 46.4628 101.872 46.4628 101.98 46.4628C102.521 46.5706 103.062 46.5706 103.495 46.6784H103.604C104.686 46.894 105.877 47.2174 106.96 47.5408C110.316 48.6188 113.672 50.3436 117.028 51.5295C120.059 52.6075 122.982 53.2543 126.013 52.8231C125.797 53.9011 125.689 54.9792 125.472 55.9494C124.822 56.0572 124.281 56.0572 123.74 56.0572Z" fill="#FFCD2E"/>
<path d="M87.798 125.158C87.5814 124.619 87.6897 124.619 87.6897 124.08C87.6897 124.08 87.5814 123.326 87.6897 123.002C87.9062 122.356 87.3649 121.601 86.9319 121.278C86.9319 121.278 85.4163 120.307 84.6585 119.876C83.9007 119.337 83.2511 118.906 83.2511 118.367C83.2511 117.828 83.7924 117.073 83.7924 116.211C83.7924 115.456 83.4676 115.133 83.4676 114.594C83.5759 114.163 84.2254 113.3 84.5502 112.869C84.875 112.438 85.1998 110.713 84.1172 108.988C83.6841 108.341 81.5189 105.97 81.5189 105.97C81.5189 105.97 79.5703 103.598 79.2455 102.736C78.8125 101.981 78.596 101.334 78.7042 100.687C78.8125 99.8249 79.029 99.2858 79.6785 99.3936C80.1116 99.3936 80.4364 99.8249 80.6529 100.364C80.7611 100.579 80.9777 100.795 80.5446 101.442C80.2198 102.197 80.8694 103.275 80.8694 103.275C80.8694 103.275 80.8694 102.843 81.3024 102.628C81.3024 102.628 81.0859 103.167 81.952 104.353C81.952 104.353 81.7355 103.598 82.1685 103.382C82.385 103.275 82.9263 104.784 83.5759 105.646C84.2254 106.401 85.9576 106.293 85.9576 106.293C85.9576 106.293 84.875 105.646 84.4419 102.304C84.2254 100.256 82.8181 100.364 81.952 100.364C81.4107 100.256 81.1942 99.6093 80.8694 98.9624C80.5446 98.4234 80.0033 97.8844 79.3538 97.8844C78.8125 97.8844 78.3794 98.1 77.9464 98.7468C77.5134 99.5015 77.4051 99.9327 77.5134 101.011C77.5134 102.089 77.8382 103.167 78.3794 103.921C79.029 104.999 80.5446 106.94 80.5446 106.94C80.5446 106.94 82.385 109.096 82.8181 109.958C83.3593 110.821 83.1428 111.468 82.8181 111.791C82.385 112.114 81.0859 112.007 80.7611 111.683C80.4364 111.468 79.462 110.174 79.462 110.174C79.462 110.174 76.8638 107.371 76.6473 106.616C76.4308 105.862 76.4308 103.921 76.6473 102.52C77.0803 99.6093 76.539 97.6688 76.539 97.6688C77.0803 97.7766 77.1886 98.7468 77.1886 98.7468C77.7299 97.7766 77.0803 96.9142 77.0803 96.9142C78.0547 97.6688 78.4877 97.2376 78.4877 97.2376C77.2968 95.944 77.6216 92.7099 77.6216 92.7099C77.6216 92.7099 78.1629 93.3567 78.3794 95.2972C79.6786 90.0149 76.8638 89.1524 76.8638 89.1524C77.9464 89.2602 79.1373 90.6617 79.1373 90.6617C78.1629 86.0262 75.7812 85.8106 73.7243 86.3496C74.4821 85.4872 76.7556 85.4872 76.7556 85.4872C76.7556 85.4872 74.0491 84.6247 72.4252 85.0559C72.75 84.4091 73.8326 83.8701 73.8326 83.8701C71.8839 84.0857 71.2344 84.5169 70.26 85.3794C70.3683 84.6247 70.6931 84.1935 70.6931 84.1935C70.6931 84.1935 69.0692 84.5169 68.5279 85.595C67.9866 86.5652 68.4196 87.3198 69.0692 87.5354C69.0692 87.5354 68.6362 87.4276 68.4196 87.4276C67.7701 87.4276 67.0123 87.8588 66.6875 88.1822C66.3627 88.5056 65.0636 88.9368 64.7388 89.2602C64.414 89.4758 64.5223 90.2305 64.7388 90.4461C64.8471 90.6617 64.8471 90.6617 64.8471 90.7695C64.8471 90.8773 64.9553 91.9553 65.6049 92.1709L66.2545 92.3865C66.2545 92.3865 66.0379 91.7397 67.0123 91.6319C67.9866 91.5241 69.2857 92.2787 67.9866 93.0333C67.5536 93.2489 66.7957 93.5723 66.3627 93.1411C66.2544 92.9255 66.2545 92.8177 66.2545 92.8177C66.2545 92.8177 65.9297 92.8177 65.8214 93.2489C65.7132 93.6801 65.7132 94.5425 66.2545 94.7582C66.7958 94.9738 68.2031 94.4347 68.8527 94.2191C69.5022 93.8957 70.26 93.3567 70.26 92.6021C70.26 92.6021 70.9096 93.3567 69.5022 94.4347C68.0949 95.5128 64.9553 95.405 64.9553 98.1C64.9553 98.1 65.3884 96.9142 66.6875 96.483C66.6875 96.483 64.8471 97.561 65.0636 99.5014C65.3884 98.5312 66.471 97.6688 67.5536 97.561C67.5536 97.561 65.0636 99.178 65.4966 103.598C65.4966 103.706 65.4966 103.706 65.4966 103.706C64.8471 102.412 65.1719 100.579 65.1719 100.579C64.5223 100.579 63.981 99.8249 63.7645 99.0702C63.2232 97.2376 63.2232 97.022 62.4654 96.6986C61.7076 96.3752 61.2745 96.2674 60.8415 96.2674C60.4085 96.2674 60.0837 96.6986 60.192 96.8064C60.192 96.9142 60.7332 96.6986 61.2745 97.1298C61.2745 97.1298 60.625 97.022 60.0837 97.2376C59.9754 97.4532 60.0837 98.1 60.0837 98.1C60.192 98.2078 60.7333 97.9922 61.1663 98.1C61.1663 98.1 60.4085 98.2078 60.192 98.4234C60.0837 98.639 60.0837 99.0702 60.192 99.178C60.5167 99.5015 61.5993 99.0702 61.8158 100.795C61.8158 101.011 61.9241 101.226 62.0324 101.334C62.4654 101.873 63.0067 101.765 63.0067 101.765C63.1149 101.981 63.981 103.275 64.4141 103.921C63.8728 104.029 62.6819 104.245 62.3571 104.245C61.9241 104.245 61.2745 103.706 61.2745 103.706L59.7589 102.843C59.7589 102.843 59.8672 103.49 59.4341 103.382C59.2176 103.275 59.1094 102.52 59.1094 102.52C59.1094 102.52 58.2433 102.736 58.2433 103.382C57.8103 103.382 57.5937 104.353 57.9185 104.784C56.9442 106.077 59.2176 106.509 59.2176 106.509C59.2176 106.509 60.8415 107.048 61.1663 107.155C61.4911 107.263 62.4654 107.694 63.0067 107.694C63.548 107.694 64.5223 107.371 64.5223 107.371C64.5223 107.371 65.4966 107.155 66.1462 107.155C66.1462 107.155 67.4453 107.155 69.0692 104.029C69.0692 104.029 68.8527 106.724 66.7958 107.587C66.7958 107.587 67.4453 108.233 67.8783 108.772C68.3114 109.311 69.2857 110.282 69.7187 110.497C70.3683 111.036 72.3169 111.791 72.6417 112.33C73.0748 112.977 73.2913 113.839 73.2913 113.839C73.2913 113.839 73.2913 113.516 73.5078 113.624C73.7243 113.624 74.0491 114.702 74.0491 114.702C74.0491 114.702 74.2656 113.731 74.5904 114.055C74.8069 114.378 75.2399 114.917 75.2399 115.456C75.2399 115.995 74.9152 116.426 74.9152 116.426L73.183 118.367C72.1004 119.553 71.7756 119.66 71.4509 120.092C71.2344 120.415 70.9096 120.738 70.8013 121.278C70.6931 121.817 70.6931 122.463 71.0178 123.649C71.3426 124.727 70.9096 126.452 70.1518 126.452C68.2031 126.452 68.3114 126.021 67.7701 126.668C67.2288 127.314 66.5792 128.177 66.6875 128.392C66.7957 128.824 67.2288 128.931 67.337 128.931C67.4453 128.931 67.337 127.961 67.8783 127.638C67.8783 127.638 67.4453 128.392 67.5536 128.931C67.6618 129.47 68.3114 129.363 68.3114 129.255C68.3114 129.147 68.3114 128.392 68.5279 128.177C68.5279 128.177 68.5279 128.931 68.6361 129.255C68.7444 129.47 69.0692 129.686 69.5022 129.363C69.9353 129.039 70.1518 128.285 71.7756 128.392C72.6417 128.5 72.75 128.285 72.8582 127.961C72.8582 127.422 73.183 126.56 73.616 125.59C73.7243 125.266 74.0491 125.158 74.1573 125.266C74.2656 125.374 74.2656 125.59 74.2656 125.59C74.2656 125.59 74.4821 125.158 74.2656 124.943C74.2656 124.943 74.3739 124.943 74.4821 125.158C74.4821 125.158 74.4821 124.727 74.2656 124.512C74.0491 124.296 73.8326 123.434 74.0491 123.11C74.3739 122.463 75.7812 121.062 78.0547 121.062C77.0803 119.984 76.9721 119.445 76.7556 118.367C76.539 117.289 76.9721 115.887 76.9721 115.887C76.9721 115.887 77.1886 118.151 77.5134 118.906C79.2455 122.787 84.3337 123.757 84.3337 123.757C84.3337 123.757 84.4419 124.619 84.3337 125.266C84.0089 126.668 83.7924 127.314 83.7924 127.314C83.7924 127.314 82.1685 127.099 81.3024 126.883C80.6529 126.668 79.8951 128.716 79.8951 128.824C79.8951 128.931 80.3281 129.363 80.4364 129.363C80.5446 129.363 80.5446 128.5 81.1942 128.177C81.1942 128.177 80.6529 128.931 80.7611 129.363C80.8694 129.686 81.1942 129.686 81.3024 129.686C81.4107 129.686 81.3024 128.931 81.6272 128.608C81.6272 128.608 81.4107 129.47 81.8437 129.686C82.2768 129.902 82.2768 129.794 82.6015 129.686C82.9263 129.578 84.2254 129.47 84.7667 129.47C85.308 129.47 85.5245 128.285 86.2823 126.991C86.9319 125.913 87.1484 125.051 87.4732 125.051C87.798 124.943 87.9062 125.697 87.4732 126.021C87.2567 126.129 88.0145 125.697 87.798 125.158ZM69.394 89.5836C69.0692 89.907 67.7701 89.7992 67.8783 89.2602C68.0949 88.6134 68.8527 88.5056 69.394 88.9368C69.827 89.1524 69.394 89.4758 69.394 89.5836Z" fill="#D4263F"/>
<path d="M61.0581 99.5015L60.192 103.275L60.4085 103.382L61.2746 99.6093C61.1663 99.6093 61.1663 99.6093 61.0581 99.5015Z" fill="black"/>
<path d="M62.7902 101.873C62.682 101.873 62.4654 101.765 62.3572 101.657L62.4654 104.568H62.5737C62.682 104.568 62.7902 104.568 62.8985 104.568L62.7902 101.873Z" fill="black"/>
<path d="M59.2176 102.52C59.2176 102.628 59.2176 102.735 59.2176 102.843C59.2176 102.951 59.3259 103.598 59.5424 103.706C59.8672 103.814 59.8672 103.275 59.8672 103.167C59.8672 102.843 59.8672 102.52 59.7589 102.304C59.3259 94.9737 61.7076 89.1524 61.7076 89.1524L61.9241 95.0815L61.5993 96.5908C61.7076 96.5908 61.7076 96.5908 61.8159 96.5908L61.9241 95.8361V96.5908C62.0324 96.5908 62.1406 96.6986 62.3571 96.6986L62.2489 94.3269L63.981 86.3495L64.6306 85.7027L64.3058 84.0857L63.3315 85.4871L63.6562 86.3495L62.1406 93.5723L61.9241 88.0744C61.9241 88.0744 61.7076 87.5354 61.5993 87.3198C61.4911 87.212 61.058 86.9964 60.9498 87.1042C60.7333 87.3198 60.9498 87.6432 61.1663 87.8588C61.3828 88.0744 61.8159 88.3978 61.8159 88.3978C61.8159 88.3978 58.6763 93.6801 59.2176 102.52Z" fill="black"/>
<path d="M62.5736 107.802L62.7901 114.594C62.7901 114.594 61.2745 111.683 60.4084 107.155C60.1919 107.048 59.8672 106.94 59.6506 106.94C60.7332 112.653 62.7901 115.133 62.7901 115.133C62.7901 115.133 62.5736 115.564 62.2488 115.995C61.9241 116.426 62.0323 116.642 62.1406 116.75C62.2488 116.858 62.5736 116.858 62.8984 116.319C63.2232 115.78 63.2232 115.456 63.2232 115.456L62.8984 108.018C62.8984 107.91 62.7901 107.91 62.5736 107.802Z" fill="black"/>
<path d="M91.6954 126.129C91.2623 125.913 91.3706 125.158 91.6954 125.158C92.0202 125.158 92.1284 126.021 92.8862 127.099C93.644 128.285 93.7523 129.578 94.4019 129.578C94.9431 129.578 96.2423 129.686 96.567 129.794C96.8918 129.902 96.8918 130.01 97.3248 129.794C97.7579 129.578 97.5414 128.716 97.5414 128.716C97.8661 128.932 97.7579 129.686 97.8661 129.794C98.0827 129.794 98.2992 129.794 98.4074 129.471C98.5157 129.039 97.9744 128.285 97.9744 128.285C98.6239 128.608 98.6239 129.471 98.7322 129.471C98.8405 129.471 99.2735 129.147 99.2735 128.932C99.2735 128.716 98.5157 126.776 97.8661 126.991C97.0001 127.207 95.3762 127.422 95.3762 127.422C95.3762 127.422 95.1597 126.776 94.8349 125.374C94.6184 124.727 94.8349 123.865 94.8349 123.865C94.8349 123.865 100.031 122.895 101.655 119.014C101.98 118.259 102.196 115.995 102.196 115.995C102.196 115.995 102.521 117.397 102.413 118.475C102.196 119.553 102.088 120.092 101.114 121.17C103.387 121.17 104.903 122.571 105.119 123.218C105.228 123.541 105.011 124.296 104.903 124.619C104.686 124.727 104.686 125.266 104.686 125.266C104.795 125.051 104.903 125.051 104.903 125.051C104.686 125.374 104.903 125.697 104.903 125.697C104.903 125.697 104.903 125.482 105.011 125.374C105.119 125.266 105.336 125.374 105.553 125.697C105.986 126.668 106.202 127.422 106.31 128.069C106.31 128.393 106.527 128.608 107.393 128.5C109.017 128.285 109.233 129.147 109.666 129.471C110.099 129.794 110.424 129.578 110.532 129.363C110.641 129.147 110.641 128.285 110.641 128.285C110.965 128.5 110.857 129.255 110.857 129.363C110.857 129.471 111.507 129.578 111.615 129.039C111.723 128.5 111.29 127.746 111.29 127.746C111.832 128.069 111.723 129.039 111.832 129.039C111.94 129.039 112.373 128.932 112.481 128.5C112.481 128.285 111.94 127.315 111.398 126.776C110.857 126.129 110.857 126.56 109.017 126.56C108.259 126.56 107.826 124.835 108.151 123.757C108.475 122.463 108.584 121.924 108.367 121.385C108.259 120.846 107.934 120.523 107.718 120.2C107.393 119.661 107.068 119.553 105.986 118.475L104.253 116.534C104.253 116.534 103.929 116.103 103.929 115.564C103.929 115.025 104.253 114.486 104.578 114.163C104.795 113.839 105.119 114.809 105.119 114.809C105.119 114.809 105.444 113.731 105.661 113.731C105.877 113.731 105.877 113.947 105.877 113.947C105.877 113.947 106.094 113.085 106.527 112.438C106.852 111.899 108.8 111.144 109.45 110.605C109.883 110.282 110.857 109.312 111.29 108.88C111.723 108.341 112.373 107.695 112.373 107.695C110.316 106.832 110.099 104.137 110.099 104.137C111.723 107.263 113.022 107.263 113.022 107.263C113.672 107.371 114.646 107.479 114.646 107.479C114.646 107.479 115.621 107.802 116.162 107.802C116.703 107.802 117.677 107.371 118.002 107.263C118.327 107.155 119.951 106.616 119.951 106.616C119.951 106.616 122.224 106.185 121.25 104.892C121.575 104.46 121.358 103.49 120.925 103.49C120.925 102.843 120.059 102.628 120.059 102.628C120.059 102.628 119.951 103.382 119.734 103.49C119.301 103.598 119.41 102.951 119.41 102.951L117.894 103.814C117.894 103.814 117.244 104.353 116.811 104.353C116.378 104.353 115.296 104.137 114.755 104.029C115.188 103.275 116.162 102.089 116.162 101.873C116.162 101.765 116.811 101.873 117.136 101.442C117.244 101.334 117.353 101.119 117.353 100.903C117.461 99.1781 118.652 99.6093 118.977 99.2859C119.085 99.1781 119.085 98.7469 118.977 98.5313C118.76 98.3157 118.002 98.2079 118.002 98.2079C118.435 98.1001 118.977 98.3157 119.085 98.2079C119.085 98.2079 119.193 97.5611 119.085 97.3455C118.544 97.1299 117.894 97.2377 117.894 97.2377C118.435 96.8065 118.977 97.0221 118.977 96.9143C119.085 96.6987 118.76 96.3753 118.327 96.3753C117.894 96.3753 117.461 96.4831 116.703 96.8065C115.945 97.1299 115.945 97.3455 115.404 99.1781C115.188 99.825 114.646 100.687 113.997 100.687C113.997 100.687 114.321 102.52 113.672 103.814V103.706C114.105 99.2859 111.615 97.6689 111.615 97.6689C112.698 97.7767 113.78 98.7469 114.105 99.6094C114.321 97.6689 112.481 96.5909 112.481 96.5909C113.888 97.0221 114.213 98.2079 114.213 98.2079C114.213 95.5129 111.182 95.5129 109.666 94.5426C108.259 93.4646 108.909 92.71 108.909 92.71C108.909 93.4646 109.666 94.0036 110.316 94.327C110.965 94.6504 112.373 95.0817 112.914 94.8661C113.455 94.6504 113.455 93.788 113.347 93.3568C113.239 92.9256 112.914 92.9256 112.914 92.9256C112.914 92.9256 112.914 93.1412 112.806 93.249C112.373 93.788 111.615 93.4646 111.182 93.1412C109.883 92.2788 111.182 91.5242 112.156 91.7398C113.131 91.8476 112.914 92.4944 112.914 92.4944L113.564 92.2788C114.213 92.0632 114.321 90.9852 114.321 90.8774C114.321 90.6618 114.321 90.6618 114.43 90.554C114.538 90.3384 114.755 89.6915 114.43 89.3681C114.105 89.1525 112.806 88.6135 112.481 88.2901C112.156 87.9667 111.29 87.5355 110.749 87.5355C110.532 87.5355 110.099 87.6433 110.099 87.6433C110.749 87.3199 111.182 86.6731 110.641 85.7029C110.099 84.7326 108.476 84.3014 108.476 84.3014C108.476 84.3014 108.8 84.7326 108.909 85.4873C107.934 84.6248 107.285 84.1936 105.336 83.978C105.336 83.978 106.419 84.517 106.743 85.1639C105.119 84.6248 102.413 85.5951 102.413 85.5951C102.413 85.5951 104.686 85.4873 105.444 86.4575C103.387 85.9185 101.006 86.2419 100.031 90.7696C100.031 90.7696 101.222 89.4759 102.305 89.2603C102.305 89.2603 99.49 90.015 100.789 95.4051C101.006 93.4646 101.547 92.8178 101.547 92.8178C101.547 92.8178 101.98 96.0519 100.681 97.3455C100.681 97.3455 101.222 97.7767 102.088 97.0221C102.088 97.0221 101.439 97.7767 101.98 98.8547C101.98 98.8547 102.088 97.8845 102.63 97.7767C102.63 97.7767 102.088 99.7172 102.521 102.628C102.738 104.029 102.738 105.97 102.521 106.724C102.305 107.479 99.7065 110.282 99.7065 110.282C99.7065 110.282 98.8405 111.575 98.4074 111.791C98.0827 112.007 96.7835 112.222 96.3505 111.899C95.9175 111.575 95.8092 110.929 96.3505 110.066C96.7835 109.096 98.6239 107.048 98.6239 107.048C98.6239 107.048 100.14 105.215 100.789 104.029C101.222 103.275 101.655 102.197 101.655 101.119C101.655 100.041 101.655 99.6093 101.222 98.8547C100.789 98.2079 100.356 97.9923 99.8148 97.9923C99.1652 97.9923 98.6239 98.5313 98.2992 99.0703C97.9744 99.6094 97.7579 100.364 97.2166 100.472C96.3505 100.472 95.0514 100.364 94.7266 102.412C94.2936 105.754 93.211 106.401 93.211 106.401C93.211 106.401 94.9431 106.509 95.5927 105.754C96.2422 104.999 96.7835 103.382 97.0001 103.49C97.4331 103.706 97.2166 104.46 97.2166 104.46C98.0826 103.275 97.8661 102.736 97.8661 102.736C98.2992 102.951 98.2992 103.382 98.2992 103.382C98.2992 103.382 99.057 102.197 98.6239 101.55C98.2992 100.903 98.5157 100.687 98.5157 100.472C98.7322 99.9328 99.057 99.6093 99.49 99.5015C100.14 99.5015 100.356 99.9328 100.464 100.795C100.573 101.334 100.356 102.089 99.923 102.843C99.49 103.598 97.6496 106.077 97.6496 106.077C97.6496 106.077 95.4844 108.557 95.0514 109.096C93.9688 110.821 94.1853 112.438 94.6184 112.977C95.0514 113.408 95.701 114.27 95.701 114.702C95.8092 115.133 95.3762 115.456 95.3762 116.319C95.3762 117.073 95.9175 117.936 95.9175 118.475C95.9175 119.014 95.2679 119.553 94.5101 119.984C93.7523 120.523 92.2367 121.385 92.2367 121.385C91.8036 121.709 91.2623 122.463 91.4789 123.11C91.5871 123.434 91.4789 124.188 91.4789 124.188C91.5871 124.727 91.6954 124.727 91.3706 125.266C90.8293 125.697 91.6954 126.129 91.6954 126.129ZM109.558 88.8291C109.991 88.5057 110.857 88.6135 111.074 89.1525C111.29 89.6915 109.991 89.7993 109.558 89.4759C109.45 89.4759 109.125 89.1525 109.558 88.8291Z" fill="#D4263F"/>
<path d="M117.786 99.5016L118.652 103.275L118.435 103.382L117.569 99.6094C117.678 99.6094 117.786 99.6094 117.786 99.5016Z" fill="black"/>
<path d="M116.162 101.873C116.27 101.873 116.487 101.765 116.595 101.658L116.487 104.568H116.378C116.27 104.568 116.162 104.568 116.054 104.568L116.162 101.873Z" fill="black"/>
<path d="M119.734 102.52C119.734 102.628 119.734 102.736 119.734 102.843C119.734 102.951 119.626 103.598 119.41 103.706C119.085 103.814 119.085 103.275 119.085 103.167C119.085 102.843 119.085 102.52 119.193 102.304C119.626 94.9738 117.245 89.1525 117.245 89.1525L117.028 95.0816L117.353 96.5909C117.245 96.5909 117.245 96.5909 117.136 96.5909L117.028 95.8363V96.5909C116.92 96.5909 116.811 96.6987 116.595 96.6987L116.703 94.327L114.971 86.3497L114.322 85.7029L114.646 84.0858L115.621 85.4872L115.296 86.3497L116.811 93.5724L117.028 88.0745C117.028 88.0745 117.245 87.5355 117.353 87.3199C117.461 87.2121 117.894 86.9965 118.002 87.1043C118.219 87.3199 118.002 87.6433 117.786 87.8589C117.569 88.0745 117.136 88.3979 117.136 88.3979C117.136 88.3979 120.168 93.6802 119.734 102.52Z" fill="black"/>
<path d="M116.378 107.802L116.162 114.594C116.162 114.594 117.678 111.683 118.544 107.156C118.76 107.048 119.085 106.94 119.301 106.94C118.219 112.653 116.162 115.133 116.162 115.133C116.162 115.133 116.378 115.564 116.703 115.995C117.028 116.427 116.92 116.642 116.811 116.75C116.703 116.858 116.378 116.858 116.054 116.319C115.729 115.78 115.729 115.456 115.729 115.456L116.054 108.018C116.054 107.91 116.162 107.91 116.378 107.802Z" fill="black"/>
</svg>
